<svg width="97" height="97" xmlns="http://www.w3.org/2000/svg" xmlns:xlink="http://www.w3.org/1999/xlink" xml:space="preserve" overflow="hidden"><defs><clipPath id="clip0"><rect x="360" y="104" width="97" height="97"/></clipPath><clipPath id="clip1"><rect x="361" y="105" width="96" height="96"/></clipPath><clipPath id="clip2"><rect x="361" y="105" width="96" height="96"/></clipPath><clipPath id="clip3"><rect x="361" y="105" width="96" height="96"/></clipPath></defs><g clip-path="url(#clip0)" transform="translate(-360 -104)"><g clip-path="url(#clip1)"><g clip-path="url(#clip2)"><g clip-path="url(#clip3)"><path d="M424.53 154.26 418.05 160.74 411.56 154.26 415.18 154.26C413.956 151.875 411.501 150.374 408.82 150.37 407.09 150.372 405.421 151.009 404.13 152.16L397.54 152.16C400.476 145.924 407.911 143.249 414.147 146.184 417.475 147.751 419.942 150.706 420.89 154.26Z" fill="#000000" fill-rule="nonzero" fill-opacity="1"/><path d="M393.15 160.74 399.64 154.26 406.12 160.74 402.47 160.74C403.691 163.124 406.142 164.625 408.82 164.63 410.553 164.63 412.226 163.993 413.52 162.84L420.14 162.84C417.195 169.084 409.745 171.758 403.502 168.812 400.177 167.244 397.711 164.291 396.76 160.74Z" fill="#000000" fill-rule="nonzero" fill-opacity="1"/><path d="M439.73 181C448.365 180.796 455.2 173.63 454.996 164.994 454.815 157.376 449.17 150.996 441.63 149.89 440.833 145 438.147 140.618 434.15 137.69 430.013 134.758 424.847 133.672 419.88 134.69 414.993 127.146 405.881 123.503 397.14 125.6 388.621 127.794 382.255 134.893 381 143.6 375.325 143.752 370.033 146.498 366.64 151.05 362.62 156.634 361.888 163.939 364.72 170.21 367.607 176.391 373.65 180.491 380.46 180.89ZM380.73 174.68C376.205 174.395 372.194 171.671 370.26 167.57 368.384 163.39 368.867 158.529 371.53 154.8 374.252 151.138 378.782 149.289 383.29 150L386.84 150.59 386.84 146.67C386.875 139.588 391.688 133.422 398.55 131.67 405.436 130.01 412.555 133.329 415.71 139.67L416.92 142.08 419.43 141.19C423.185 139.863 427.352 140.445 430.6 142.75 433.83 145.116 435.742 148.877 435.75 152.88L435.75 156 439.83 156C445.012 156.195 449.056 160.553 448.861 165.736 448.675 170.684 444.68 174.637 439.73 174.77Z" fill="#000000" fill-rule="nonzero" fill-opacity="1"/></g></g></g></g></svg>