<svg width="512" height="550" xmlns="http://www.w3.org/2000/svg" clip-rule="evenodd" fill-rule="evenodd" image-rendering="optimizeQuality" text-rendering="geometricPrecision" shape-rendering="geometricPrecision">

 <g>
  <title>Layer 1</title>
  <path id="svg_1" d="m359.79,164.7c-3.13,1.55 -6.3,3.25 -9.42,5.05c-9.37,5.49 -18.63,12.21 -28.08,19.92l-20.17,-23.09c6.96,-6.45 14.5,-12.33 22.5,-17.53c6.37,-4.17 13.04,-7.88 19.92,-11.05c2.75,-1.38 5.5,-2.67 8.33,-3.87c-13.29,-23.55 -32.42,-40.42 -54.09,-50.83c-43.06,-20.62 -96.68,-16.14 -134.61,13.32c-21.79,16.88 -38.33,42.13 -44.71,75.59l-2,10.45l-10.42,1.84c-10.21,1.79 -19.32,4.25 -27.33,7.37c-7.75,3.01 -14.66,6.72 -20.7,11.09c-4.84,3.5 -9.01,7.42 -12.54,11.66c-10.97,13.13 -16.05,29.58 -15.93,46.26c0.13,16.9 5.63,33.99 15.8,48.03c21.23,29.14 44.05,30.09 76.07,30.09c-0.33,3.84 -0.51,7.72 -0.51,11.65c0,6.45 0.47,12.8 1.35,19.01c-41.89,0 -73.02,-3.15 -101.66,-42.79c-13.92,-19.16 -21.42,-42.58 -21.59,-65.92c-0.16,-23.58 7.17,-47.04 23.01,-66.04c5.12,-6.16 11.15,-11.83 18.07,-16.83c8.05,-5.83 17.25,-10.75 27.68,-14.78c7.16,-2.8 14.82,-5.14 22.91,-7.01c9.17,-36.41 28.71,-64.45 53.83,-83.92c47.07,-36.47 113.11,-42.29 166.54,-16.62c29.2,14.05 54.7,37.41 71.25,70.29c6.66,-1.04 13.33,-1.58 19.95,-1.5c69.26,0.52 109.46,59.53 108.75,124.04c-0.29,26.29 -7.37,52.46 -21.88,71.71c-9.45,12.54 -21.58,22.79 -36.12,30.91c-22.78,12.75 -40.39,18.46 -65.23,18.46c0.88,-6.21 1.34,-12.56 1.34,-19.01c0,-3.93 -0.18,-7.81 -0.51,-11.65c17.67,0 33.95,-5.9 49.36,-14.5c10.96,-6.13 19.92,-13.59 26.62,-22.54c10.42,-13.88 15.55,-33.5 15.75,-53.63c0.57,-47.22 -26.49,-92.88 -78.29,-93.2c-14.29,-0.13 -29.16,3.33 -43.24,9.57zm-139.99,203.96c6.57,0.86 11.22,6.89 10.36,13.47c-0.85,6.57 -6.89,11.21 -13.46,10.36l-9.98,-1.3c5.98,8.85 13.55,15.44 21.9,19.78c9.83,5.11 20.8,7.2 31.55,6.35c10.76,-0.85 21.26,-4.65 30.09,-11.26c11.17,-8.37 19.9,-21.38 23.5,-38.86c1.32,-6.49 7.68,-10.69 14.17,-9.37c6.5,1.32 10.7,7.67 9.38,14.17c-4.88,23.71 -17.01,41.57 -32.64,53.28c-12.63,9.45 -27.49,14.85 -42.62,16.06c-15.14,1.2 -30.64,-1.76 -44.54,-8.99c-11.24,-5.85 -21.43,-14.47 -29.54,-25.89l-1.5,6.73c-1.42,6.47 -7.84,10.56 -14.31,9.14c-6.47,-1.43 -10.56,-7.85 -9.14,-14.31l7.67,-34.29c1.15,-6.24 7.01,-10.56 13.37,-9.73l35.74,4.66zm105.73,-80.61c1.42,-6.47 7.84,-10.56 14.31,-9.14c6.47,1.43 10.55,7.85 9.13,14.32l-7.84,35.02c-1.35,6.1 -7.14,10.09 -13.23,9.32l-35.4,-4.58c-6.58,-0.83 -11.24,-6.85 -10.41,-13.42c0.83,-6.57 6.85,-11.23 13.42,-10.4l9.61,1.24c-5.78,-8.78 -13.2,-15.36 -21.41,-19.76c-9.59,-5.13 -20.37,-7.38 -31,-6.79c-10.6,0.58 -21.03,4.01 -29.96,10.2c-11.93,8.27 -21.32,21.65 -25.11,40c-1.32,6.5 -7.68,10.7 -14.17,9.38c-6.5,-1.32 -10.7,-7.68 -9.38,-14.17c5.15,-24.95 18.25,-43.37 35,-54.98c12.65,-8.78 27.39,-13.63 42.31,-14.45c14.88,-0.82 30.05,2.37 43.61,9.63c11.05,5.92 21.03,14.51 28.9,25.77l1.62,-7.19z" fill-rule="nonzero"/>
 </g>
</svg>