<svg width="200" height="200" xmlns="http://www.w3.org/2000/svg" clip-rule="evenodd" fill-rule="evenodd" image-rendering="optimizeQuality" text-rendering="geometricPrecision" shape-rendering="geometricPrecision">

 <g>
  <title>Layer 1</title>
  <path stroke="null" id="svg_1" d="m139.26134,67.86894c-5.22127,2.52291 -9.88848,5.77901 -14.39793,9.36222l-7.74149,-8.65535c5.69453,-5.16614 12.34328,-9.21182 19.48453,-12.18216c-14.4518,-25.01479 -49.40391,-31.56082 -72.45138,-14.06588c-8.36481,6.33172 -14.72114,15.80297 -17.1644,28.35736l-0.77338,3.9216l-3.99772,0.68807c-3.91691,0.67303 -7.42213,1.59797 -10.49256,2.77107c-19.16133,7.24538 -24.54036,28.08289 -12.81654,43.91218c5.01734,6.73027 11.41215,10.14428 19.80389,11.28354l12.26633,0c-0.43479,2.56051 -0.6618,5.19246 -0.6618,7.86953c0,1.22574 0.04617,2.43643 0.13852,3.63585l-11.93158,0l-0.73875,-0.06016c-11.75074,-1.46261 -21.40067,-6.55355 -28.37647,-15.99473c-16.26405,-21.88653 -8.25707,-51.37939 18.10707,-61.37327c2.75107,-1.04902 5.69838,-1.92132 8.79574,-2.62443c3.52061,-13.66357 11.02354,-24.1876 20.67346,-31.48562c29.70006,-22.48812 74.28286,-12.90407 91.2972,20.1344c2.56254,-0.39103 5.11738,-0.59407 7.66453,-0.56399c38.05333,0.27447 53.10151,47.83002 33.35534,73.4464c-7.91848,10.25708 -20.05784,15.53225 -32.55502,18.36724l-1.3159,0.15416l-7.0643,0c0.09234,-1.19942 0.14236,-2.41011 0.14236,-3.63585c0,-2.67707 -0.23086,-5.30902 -0.66564,-7.86953l6.93348,0c9.29594,-2.18452 19.2075,-6.20012 25.09827,-13.89669c14.0324,-18.2582 4.07467,-54.91748 -24.00938,-55.09044c-5.48676,-0.04512 -11.20053,1.25206 -16.60649,3.59449zm-48.49202,47.58939l17.28367,0c4.04004,0 7.35287,3.23354 7.35287,7.18522l0,24.81927l12.61262,0c2.65488,0.10904 4.54024,0.97382 5.62912,2.59059c2.955,4.33143 -1.0735,8.60647 -3.87844,11.61817c-7.93772,8.51623 -21.3468,21.13078 -25.26756,25.63518c-2.97039,3.21098 -7.19512,3.21098 -10.16551,0c-4.04774,-4.62095 -18.48414,-18.1642 -26.03325,-26.45108c-2.6241,-2.88386 -5.85998,-6.80923 -3.13199,-10.80227c1.11582,-1.61677 2.98193,-2.48155 5.63682,-2.59059l12.60877,0l0,-24.81927c0,-3.92912 3.31283,-7.18522 7.35287,-7.18522z" fill-rule="nonzero"/>
 </g>
</svg>