<?xml version="1.0" encoding="UTF-8"?>
<svg width="700pt" height="700pt" version="1.1" viewBox="0 0 700 700" xmlns="http://www.w3.org/2000/svg">
 <g>
  <path d="m529.09 178.29 62.344-62.305h-0.003907c3.7539-3.7461 5.8594-8.832 5.8594-14.133 0.003906-5.3047-2.1016-10.391-5.8516-14.141l-0.007813-0.003907-68.516-68.52c-3.8203-3.6094-8.8789-5.6211-14.137-5.6211-5.2617 0-10.32 2.0117-14.141 5.6211l-62.324 62.344-296.86 296.84c-1.9805 2.0078-3.5078 4.418-4.4805 7.0625l-0.16797 0.24219-37.285 102.19c-2.2266 6.1328-1.3242 12.961 2.4141 18.305 3.7422 5.3438 9.8516 8.5273 16.375 8.5312 2.0586 0 4.1055-0.31641 6.0742-0.9375l105.78-33.672c0.23828-0.078126 0.38672-0.30859 0.625-0.39453 2.7852-0.9375 5.3242-2.4844 7.4375-4.5273zm-20.312-116.68 40.234 40.234-34.062 34.023-20.109-20.098-20.105-20.102zm-62.328 62.344 20.109 20.098 20.105 20.102-268.57 268.59-20.109-20.113-20.109-20.117zm-288.83 304.88 11.684 11.676 11.41 11.414-35.656 11.363z"/>
  <path d="m580.72 474.7h-314.25c-7.1484 0-13.75 3.8125-17.324 10-3.5703 6.1914-3.5703 13.812 0 20 3.5742 6.1914 10.176 10 17.324 10h314.26c7.1445 0 13.746-3.8086 17.32-10 3.5703-6.1875 3.5703-13.809 0-20-3.5742-6.1875-10.176-10-17.32-10z"/>
 </g>
</svg>
