<svg width="200" height="200" xmlns="http://www.w3.org/2000/svg" clip-rule="evenodd" fill-rule="evenodd" image-rendering="optimizeQuality" text-rendering="geometricPrecision" shape-rendering="geometricPrecision">

 <g>
  <title>Layer 1</title>
  <path stroke="null" id="svg_1" d="m134.59597,71.96708c-1.11874,0.54652 -2.25177,1.14592 -3.36694,1.78058c-3.34906,1.93572 -6.65881,4.30514 -10.03647,7.02361l-7.20924,-8.14133c2.48767,-2.27421 5.18265,-4.34745 8.04204,-6.18092c2.27679,-1.4703 4.66081,-2.77842 7.11989,-3.89613c0.98292,-0.48658 1.96583,-0.94142 2.97734,-1.36453c-4.75017,-8.30352 -11.58769,-14.25173 -19.33307,-17.9222c-15.39068,-7.27043 -34.55576,-5.69082 -48.11286,4.69651c-7.78827,5.95174 -13.70007,14.85466 -15.98043,26.65236l-0.71485,3.68458l-3.72436,0.64877c-3.6493,0.63114 -6.90543,1.49851 -9.7684,2.5986c-2.77004,1.0613 -5.23984,2.36941 -7.39868,3.91023c-1.72993,1.23407 -3.22039,2.61623 -4.4821,4.11121c-3.92094,4.62952 -5.73666,10.42964 -5.69377,16.31086c0.04647,5.95879 2.0123,11.98457 5.6473,16.93495c7.58811,10.2745 15.74453,10.60946 27.18925,10.60946c-0.11795,1.35395 -0.18229,2.722 -0.18229,4.10769c0,2.27421 0.16799,4.51317 0.48252,6.70276c-14.9725,0 -26.09911,-1.11066 -36.33574,-15.08737c-4.97534,-6.75564 -7.65602,-15.01333 -7.71679,-23.2428c-0.05719,-8.3141 2.56273,-16.58588 8.22433,-23.28511c1.83001,-2.17196 3.98528,-4.17115 6.45865,-5.93411c2.87726,-2.05561 6.16557,-3.79035 9.8935,-5.2113c2.55916,-0.98725 5.29703,-1.81232 8.18859,-2.47166c3.27758,-12.83784 10.26165,-22.72449 19.24014,-29.58944c16.82395,-12.859 40.42824,-14.91107 59.52541,-5.86006c10.43678,4.9539 19.5511,13.19043 25.46647,24.78362c2.38044,-0.36669 4.76446,-0.55709 7.13061,-0.52889c24.75519,0.18335 39.12364,20.98974 38.86987,43.73539c-0.10365,9.26962 -2.63422,18.49693 -7.82044,25.2843c-3.37766,4.42149 -7.71321,8.03555 -12.91016,10.89859c-8.14212,4.49554 -14.43636,6.50883 -23.31477,6.50883c0.31453,-2.18959 0.47895,-4.42854 0.47895,-6.70276c0,-1.38568 -0.06434,-2.75374 -0.18229,-4.10769c6.31568,0 12.13455,-2.08029 17.64245,-5.11257c3.91737,-2.16138 7.11989,-4.79171 9.51463,-7.9474c3.72436,-4.89396 5.55794,-11.8118 5.62943,-18.90946c0.20373,-16.64935 -9.46816,-32.74866 -27.98273,-32.86148c-5.10759,-0.04584 -10.42249,1.17413 -15.45502,3.3743zm-50.0358,71.91447c2.34828,0.30323 4.0103,2.42935 3.70291,4.7494c-0.30381,2.31652 -2.46265,3.95255 -4.81093,3.65284l-3.56709,-0.45837c2.1374,3.12043 4.8431,5.44401 7.82759,6.97425c3.51348,1.80174 7.43442,2.53866 11.27673,2.23895c3.84588,-0.2997 7.59884,-1.63955 10.75489,-3.97018c3.99243,-2.95119 7.11274,-7.5384 8.39947,-13.70169c0.4718,-2.28832 2.74502,-3.7692 5.0647,-3.30378c2.32326,0.46542 3.82444,2.70437 3.35264,4.99622c-1.74423,8.35993 -6.07978,14.65721 -11.66632,18.78605c-4.51427,3.33199 -9.82559,5.23598 -15.23342,5.66261c-5.4114,0.42311 -10.95147,-0.62056 -15.91967,-3.16979c-4.01745,-2.06266 -7.6596,-5.10199 -10.55831,-9.12858l-0.53614,2.37294c-0.50754,2.28126 -2.80221,3.72336 -5.11474,3.22268c-2.31253,-0.50421 -3.7744,-2.76784 -3.26686,-5.04558l2.74144,-12.09035c0.41104,-2.20017 2.50554,-3.72336 4.77876,-3.43071l12.77434,1.64307zm37.79045,-28.42236c0.50754,-2.28126 2.80221,-3.72336 5.11474,-3.22268c2.31253,0.50421 3.77082,2.76784 3.26328,5.0491l-2.80221,12.34774c-0.48252,2.15081 -2.55201,3.55764 -4.72872,3.28615l-12.65281,-1.61487c-2.35185,-0.29265 -4.01745,-2.41525 -3.72078,-4.73177c0.29666,-2.31652 2.44836,-3.9596 4.79663,-3.66695l3.43485,0.43721c-2.06591,-3.09575 -4.718,-5.4158 -7.65245,-6.9672c-3.4277,-1.80879 -7.28073,-2.60212 -11.08015,-2.39409c-3.7887,0.2045 -7.51663,1.41389 -10.70843,3.59643c-4.26407,2.91593 -7.62028,7.6336 -8.97492,14.10364c-0.4718,2.29184 -2.74502,3.77272 -5.0647,3.3073c-2.32326,-0.46542 -3.82444,-2.7079 -3.35264,-4.99622c1.84073,-8.79715 6.52299,-15.29187 12.50984,-19.38546c4.52141,-3.09575 9.78985,-4.80582 15.12261,-5.09494c5.31847,-0.28912 10.74059,0.83564 15.58727,3.39545c3.94954,2.08734 7.51663,5.1161 10.32956,9.08627l0.57903,-2.53513z" fill-rule="nonzero"/>
 </g>
</svg>